<?xml version="1.0" encoding="UTF-8" standalone="no"?>
<!DOCTYPE svg PUBLIC "-//W3C//DTD SVG 1.1//EN"
 "http://www.w3.org/Graphics/SVG/1.1/DTD/svg11.dtd">
<!-- Generated by graphviz version 2.40.1 (20161225.0304)
 -->
<!-- Title: dependencies Pages: 1 -->
<svg width="1937pt" height="284pt"
 viewBox="0.00 0.00 1937.00 284.00" xmlns="http://www.w3.org/2000/svg" xmlns:xlink="http://www.w3.org/1999/xlink">
<g id="graph0" class="graph" transform="scale(1 1) rotate(0) translate(4 280)">
<title>dependencies</title>
<polygon fill="#ffffff" stroke="transparent" points="-4,4 -4,-280 1933,-280 1933,4 -4,4"/>
<text text-anchor="start" x="943.5091" y="-42.4" font-family="sans-serif" font-weight="bold" font-size="14.00" fill="#000000">Legend</text>
<polygon fill="#ffffb3" stroke="transparent" points="730.5,-10 730.5,-30 750.5,-30 750.5,-10 730.5,-10"/>
<text text-anchor="start" x="754.129" y="-15.4" font-family="sans-serif" font-size="14.00" fill="#000000"> &#160;Declarations</text>
<polygon fill="#8dd3c7" stroke="transparent" points="843.5,-10 843.5,-30 863.5,-30 863.5,-10 843.5,-10"/>
<text text-anchor="start" x="867.2251" y="-15.4" font-family="sans-serif" font-size="14.00" fill="#000000"> &#160;Module</text>
<polygon fill="#80b1d3" stroke="transparent" points="929.5,-10 929.5,-30 949.5,-30 949.5,-10 929.5,-10"/>
<text text-anchor="start" x="953.2812" y="-15.4" font-family="sans-serif" font-size="14.00" fill="#000000"> &#160;Bootstrap</text>
<polygon fill="#fdb462" stroke="transparent" points="1026.5,-10 1026.5,-30 1046.5,-30 1046.5,-10 1026.5,-10"/>
<text text-anchor="start" x="1050.1732" y="-15.4" font-family="sans-serif" font-size="14.00" fill="#000000"> &#160;Providers</text>
<polygon fill="#fb8072" stroke="transparent" points="1122.5,-10 1122.5,-30 1142.5,-30 1142.5,-10 1122.5,-10"/>
<text text-anchor="start" x="1146.2258" y="-15.4" font-family="sans-serif" font-size="14.00" fill="#000000"> &#160;Exports</text>
<g id="clust1" class="cluster">
<title>cluster_AppModule</title>
<polygon fill="none" stroke="#000000" stroke-dasharray="1,5" points="8,-70 8,-268 1921,-268 1921,-70 8,-70"/>
</g>
<g id="clust2" class="cluster">
<title>cluster_AppModule_declarations</title>
<polygon fill="none" stroke="#000000" points="16,-78 16,-130 1913,-130 1913,-78 16,-78"/>
</g>
<g id="clust19" class="cluster">
<title>cluster_AppModule_bootstrap</title>
<polygon fill="none" stroke="#000000" points="907,-208 907,-260 1031,-260 1031,-208 907,-208"/>
</g>
<!-- AboutComponent -->
<g id="node1" class="node">
<title>AboutComponent</title>
<polygon fill="#ffffb3" stroke="#000000" points="1905.3301,-122 1788.6699,-122 1788.6699,-86 1905.3301,-86 1905.3301,-122"/>
<text text-anchor="middle" x="1847" y="-99.8" font-family="Times,serif" font-size="14.00" fill="#000000">AboutComponent</text>
</g>
<!-- AppModule -->
<g id="node15" class="node">
<title>AppModule</title>
<polygon fill="#8dd3c7" stroke="#000000" points="1010.6571,-187 1007.6571,-191 986.6571,-191 983.6571,-187 927.3429,-187 927.3429,-151 1010.6571,-151 1010.6571,-187"/>
<text text-anchor="middle" x="969" y="-164.8" font-family="Times,serif" font-size="14.00" fill="#000000">AppModule</text>
</g>
<!-- AboutComponent&#45;&gt;AppModule -->
<g id="edge1" class="edge">
<title>AboutComponent&#45;&gt;AppModule</title>
<path fill="none" stroke="#000000" d="M1847,-122.0908C1847,-145.1328 1847,-182 1847,-182 1847,-182 1020.7571,-182 1020.7571,-182"/>
<polygon fill="#000000" stroke="#000000" points="1020.7571,-178.5001 1010.7571,-182 1020.7571,-185.5001 1020.7571,-178.5001"/>
</g>
<!-- AppComponent -->
<g id="node2" class="node">
<title>AppComponent</title>
<polygon fill="#ffffb3" stroke="#000000" points="1770.9399,-122 1665.0601,-122 1665.0601,-86 1770.9399,-86 1770.9399,-122"/>
<text text-anchor="middle" x="1718" y="-99.8" font-family="Times,serif" font-size="14.00" fill="#000000">AppComponent</text>
</g>
<!-- AppComponent&#45;&gt;AppModule -->
<g id="edge2" class="edge">
<title>AppComponent&#45;&gt;AppModule</title>
<path fill="none" stroke="#000000" d="M1718,-122.0449C1718,-143.6623 1718,-177 1718,-177 1718,-177 1020.8744,-177 1020.8744,-177"/>
<polygon fill="#000000" stroke="#000000" points="1020.8745,-173.5001 1010.8744,-177 1020.8744,-180.5001 1020.8745,-173.5001"/>
</g>
<!-- ContactComponent -->
<g id="node3" class="node">
<title>ContactComponent</title>
<polygon fill="#ffffb3" stroke="#000000" points="1647.3795,-122 1522.6205,-122 1522.6205,-86 1647.3795,-86 1647.3795,-122"/>
<text text-anchor="middle" x="1585" y="-99.8" font-family="Times,serif" font-size="14.00" fill="#000000">ContactComponent</text>
</g>
<!-- ContactComponent&#45;&gt;AppModule -->
<g id="edge3" class="edge">
<title>ContactComponent&#45;&gt;AppModule</title>
<path fill="none" stroke="#000000" d="M1585,-122.2228C1585,-142.3652 1585,-172 1585,-172 1585,-172 1020.8559,-172 1020.8559,-172"/>
<polygon fill="#000000" stroke="#000000" points="1020.8559,-168.5001 1010.8559,-172 1020.8559,-175.5001 1020.8559,-168.5001"/>
</g>
<!-- CoursesComponent -->
<g id="node4" class="node">
<title>CoursesComponent</title>
<polygon fill="#ffffb3" stroke="#000000" points="1504.4341,-122 1377.5659,-122 1377.5659,-86 1504.4341,-86 1504.4341,-122"/>
<text text-anchor="middle" x="1441" y="-99.8" font-family="Times,serif" font-size="14.00" fill="#000000">CoursesComponent</text>
</g>
<!-- CoursesComponent&#45;&gt;AppModule -->
<g id="edge4" class="edge">
<title>CoursesComponent&#45;&gt;AppModule</title>
<path fill="none" stroke="#000000" d="M1441,-122.2222C1441,-140.8285 1441,-167 1441,-167 1441,-167 1020.8869,-167 1020.8869,-167"/>
<polygon fill="#000000" stroke="#000000" points="1020.8869,-163.5001 1010.8869,-167 1020.8868,-170.5001 1020.8869,-163.5001"/>
</g>
<!-- DomSecurePipe -->
<g id="node5" class="node">
<title>DomSecurePipe</title>
<polygon fill="#ffffb3" stroke="#000000" points="1359.472,-122 1252.528,-122 1252.528,-86 1359.472,-86 1359.472,-122"/>
<text text-anchor="middle" x="1306" y="-99.8" font-family="Times,serif" font-size="14.00" fill="#000000">DomSecurePipe</text>
</g>
<!-- DomSecurePipe&#45;&gt;AppModule -->
<g id="edge5" class="edge">
<title>DomSecurePipe&#45;&gt;AppModule</title>
<path fill="none" stroke="#000000" d="M1306,-122.0336C1306,-139.0597 1306,-162 1306,-162 1306,-162 1020.6608,-162 1020.6608,-162"/>
<polygon fill="#000000" stroke="#000000" points="1020.6608,-158.5001 1010.6608,-162 1020.6608,-165.5001 1020.6608,-158.5001"/>
</g>
<!-- FooterComponent -->
<g id="node6" class="node">
<title>FooterComponent</title>
<polygon fill="#ffffb3" stroke="#000000" points="1234.8809,-122 1117.1191,-122 1117.1191,-86 1234.8809,-86 1234.8809,-122"/>
<text text-anchor="middle" x="1176" y="-99.8" font-family="Times,serif" font-size="14.00" fill="#000000">FooterComponent</text>
</g>
<!-- FooterComponent&#45;&gt;AppModule -->
<g id="edge6" class="edge">
<title>FooterComponent&#45;&gt;AppModule</title>
<path fill="none" stroke="#000000" d="M1176,-122.2396C1176,-137.5706 1176,-157 1176,-157 1176,-157 1020.8895,-157 1020.8895,-157"/>
<polygon fill="#000000" stroke="#000000" points="1020.8896,-153.5001 1010.8895,-157 1020.8895,-160.5001 1020.8896,-153.5001"/>
</g>
<!-- HeaderComponent -->
<g id="node7" class="node">
<title>HeaderComponent</title>
<polygon fill="#ffffb3" stroke="#000000" points="1098.7437,-122 977.2563,-122 977.2563,-86 1098.7437,-86 1098.7437,-122"/>
<text text-anchor="middle" x="1038" y="-99.8" font-family="Times,serif" font-size="14.00" fill="#000000">HeaderComponent</text>
</g>
<!-- HeaderComponent&#45;&gt;AppModule -->
<g id="edge7" class="edge">
<title>HeaderComponent&#45;&gt;AppModule</title>
<path fill="none" stroke="#000000" d="M993.9783,-122.1061C993.9783,-122.1061 993.9783,-140.991 993.9783,-140.991"/>
<polygon fill="#000000" stroke="#000000" points="990.4783,-140.9909 993.9783,-150.991 997.4783,-140.991 990.4783,-140.9909"/>
</g>
<!-- HomeComponent -->
<g id="node8" class="node">
<title>HomeComponent</title>
<polygon fill="#ffffb3" stroke="#000000" points="958.5451,-122 843.4549,-122 843.4549,-86 958.5451,-86 958.5451,-122"/>
<text text-anchor="middle" x="901" y="-99.8" font-family="Times,serif" font-size="14.00" fill="#000000">HomeComponent</text>
</g>
<!-- HomeComponent&#45;&gt;AppModule -->
<g id="edge8" class="edge">
<title>HomeComponent&#45;&gt;AppModule</title>
<path fill="none" stroke="#000000" d="M942.972,-122.1061C942.972,-122.1061 942.972,-140.991 942.972,-140.991"/>
<polygon fill="#000000" stroke="#000000" points="939.472,-140.9909 942.972,-150.991 946.472,-140.991 939.472,-140.9909"/>
</g>
<!-- NavbarComponent -->
<g id="node9" class="node">
<title>NavbarComponent</title>
<polygon fill="#ffffb3" stroke="#000000" points="825.0297,-122 702.9703,-122 702.9703,-86 825.0297,-86 825.0297,-122"/>
<text text-anchor="middle" x="764" y="-99.8" font-family="Times,serif" font-size="14.00" fill="#000000">NavbarComponent</text>
</g>
<!-- NavbarComponent&#45;&gt;AppModule -->
<g id="edge9" class="edge">
<title>NavbarComponent&#45;&gt;AppModule</title>
<path fill="none" stroke="#000000" d="M764,-122.2396C764,-137.5706 764,-157 764,-157 764,-157 917.0205,-157 917.0205,-157"/>
<polygon fill="#000000" stroke="#000000" points="917.0205,-160.5001 927.0205,-157 917.0205,-153.5001 917.0205,-160.5001"/>
</g>
<!-- NotFoundComponent -->
<g id="node10" class="node">
<title>NotFoundComponent</title>
<polygon fill="#ffffb3" stroke="#000000" points="685.1122,-122 546.8878,-122 546.8878,-86 685.1122,-86 685.1122,-122"/>
<text text-anchor="middle" x="616" y="-99.8" font-family="Times,serif" font-size="14.00" fill="#000000">NotFoundComponent</text>
</g>
<!-- NotFoundComponent&#45;&gt;AppModule -->
<g id="edge10" class="edge">
<title>NotFoundComponent&#45;&gt;AppModule</title>
<path fill="none" stroke="#000000" d="M616,-122.0336C616,-139.0597 616,-162 616,-162 616,-162 917.1201,-162 917.1201,-162"/>
<polygon fill="#000000" stroke="#000000" points="917.1201,-165.5001 927.1201,-162 917.12,-158.5001 917.1201,-165.5001"/>
</g>
<!-- PortfolioComponent -->
<g id="node11" class="node">
<title>PortfolioComponent</title>
<polygon fill="#ffffb3" stroke="#000000" points="528.608,-122 397.392,-122 397.392,-86 528.608,-86 528.608,-122"/>
<text text-anchor="middle" x="463" y="-99.8" font-family="Times,serif" font-size="14.00" fill="#000000">PortfolioComponent</text>
</g>
<!-- PortfolioComponent&#45;&gt;AppModule -->
<g id="edge11" class="edge">
<title>PortfolioComponent&#45;&gt;AppModule</title>
<path fill="none" stroke="#000000" d="M463,-122.2222C463,-140.8285 463,-167 463,-167 463,-167 917.1614,-167 917.1614,-167"/>
<polygon fill="#000000" stroke="#000000" points="917.1614,-170.5001 927.1614,-167 917.1614,-163.5001 917.1614,-170.5001"/>
</g>
<!-- PostComponent -->
<g id="node12" class="node">
<title>PostComponent</title>
<polygon fill="#ffffb3" stroke="#000000" points="379.9512,-122 274.0488,-122 274.0488,-86 379.9512,-86 379.9512,-122"/>
<text text-anchor="middle" x="327" y="-99.8" font-family="Times,serif" font-size="14.00" fill="#000000">PostComponent</text>
</g>
<!-- PostComponent&#45;&gt;AppModule -->
<g id="edge12" class="edge">
<title>PostComponent&#45;&gt;AppModule</title>
<path fill="none" stroke="#000000" d="M327,-122.2228C327,-142.3652 327,-172 327,-172 327,-172 916.8766,-172 916.8766,-172"/>
<polygon fill="#000000" stroke="#000000" points="916.8766,-175.5001 926.8766,-172 916.8766,-168.5001 916.8766,-175.5001"/>
</g>
<!-- SidebarComponent -->
<g id="node13" class="node">
<title>SidebarComponent</title>
<polygon fill="#ffffb3" stroke="#000000" points="256.0954,-122 131.9046,-122 131.9046,-86 256.0954,-86 256.0954,-122"/>
<text text-anchor="middle" x="194" y="-99.8" font-family="Times,serif" font-size="14.00" fill="#000000">SidebarComponent</text>
</g>
<!-- SidebarComponent&#45;&gt;AppModule -->
<g id="edge13" class="edge">
<title>SidebarComponent&#45;&gt;AppModule</title>
<path fill="none" stroke="#000000" d="M194,-122.0449C194,-143.6623 194,-177 194,-177 194,-177 917.3326,-177 917.3326,-177"/>
<polygon fill="#000000" stroke="#000000" points="917.3327,-180.5001 927.3326,-177 917.3326,-173.5001 917.3327,-180.5001"/>
</g>
<!-- YoutubePipe -->
<g id="node14" class="node">
<title>YoutubePipe</title>
<polygon fill="#ffffb3" stroke="#000000" points="113.5997,-122 24.4003,-122 24.4003,-86 113.5997,-86 113.5997,-122"/>
<text text-anchor="middle" x="69" y="-99.8" font-family="Times,serif" font-size="14.00" fill="#000000">YoutubePipe</text>
</g>
<!-- YoutubePipe&#45;&gt;AppModule -->
<g id="edge14" class="edge">
<title>YoutubePipe&#45;&gt;AppModule</title>
<path fill="none" stroke="#000000" d="M69,-122.0908C69,-145.1328 69,-182 69,-182 69,-182 917.0977,-182 917.0977,-182"/>
<polygon fill="#000000" stroke="#000000" points="917.0977,-185.5001 927.0977,-182 917.0976,-178.5001 917.0977,-185.5001"/>
</g>
<!-- AppComponent  -->
<g id="node16" class="node">
<title>AppComponent </title>
<polygon fill="#80b1d3" stroke="#000000" points="1023.439,-252 914.561,-252 914.561,-216 1023.439,-216 1023.439,-252"/>
<text text-anchor="middle" x="969" y="-229.8" font-family="Times,serif" font-size="14.00" fill="#000000">AppComponent </text>
</g>
<!-- AppModule&#45;&gt;AppComponent  -->
<g id="edge15" class="edge">
<title>AppModule&#45;&gt;AppComponent </title>
<path fill="none" stroke="#000000" stroke-dasharray="1,5" d="M969,-187.1061C969,-187.1061 969,-205.991 969,-205.991"/>
<polygon fill="#000000" stroke="#000000" points="965.5001,-205.9909 969,-215.991 972.5001,-205.991 965.5001,-205.9909"/>
</g>
</g>
</svg>
